<svg width="754" height="359" viewBox="0 0 754 359" fill="none" xmlns="http://www.w3.org/2000/svg">
<path d="M239.958 318.04C239.858 318.177 239.794 318.326 239.8 318.502C239.995 318.276 240.027 318.132 239.958 318.04Z" fill="#05FB07"/>
<path d="M354.394 272.417L353.23 273.282C354.057 272.827 354.322 272.561 354.394 272.417Z" fill="#05FB07"/>
<path d="M168.075 334.312C168.17 334.261 168.167 334.242 168.23 334.197C167.104 334.347 165.577 334.558 163.096 334.892L168.075 334.312Z" fill="#05FB07"/>
<path d="M537.649 86.2403L538.147 88.3245C537.939 87.3797 537.831 86.7638 537.649 86.2403Z" fill="#05FB07"/>
<path d="M444.332 213.966C444.614 213.54 445.229 213 445.819 212.471C445.004 213.061 444.385 213.576 444.332 213.966Z" fill="#05FB07"/>
<path d="M128.634 330.91L130.748 331.285C130.684 331.041 129.934 330.852 128.634 330.91Z" fill="#05FB07"/>
<path d="M55.072 335.529C55.1259 335.572 55.1457 335.607 55.2626 335.671C55.3786 335.623 55.2588 335.58 55.072 335.529Z" fill="#05FB07"/>
<path d="M83.9734 338.261C84.5999 338.21 85.3231 338.116 86.0526 338.02C85.1701 338.032 84.0476 338.024 83.9734 338.261Z" fill="#05FB07"/>
<path d="M87.0419 337.876C86.7226 337.922 86.3844 337.971 86.0525 338.02C86.6076 338.009 87.0555 337.985 87.0419 337.876Z" fill="#05FB07"/>
<path d="M729.982 151.287C731.761 150.06 733.011 148.635 734.388 147.22L729.982 151.287Z" fill="#05FB07"/>
<path d="M311.686 104.374L311.972 103.927C311.627 104.227 311.601 104.337 311.686 104.374Z" fill="#05FB07"/>
<path d="M729.248 145.655L730.558 144.875C730.045 145.114 729.629 145.381 729.248 145.655Z" fill="#05FB07"/>
<path d="M166.992 324.254C168.99 323.359 173.356 323.115 173.227 322.595C171.04 323.104 167.858 323.372 166.992 324.254Z" fill="#05FB07"/>
<path d="M283.216 150.35L282.19 151.248C282.69 150.834 283 150.56 283.216 150.35Z" fill="#05FB07"/>
<path d="M729.248 145.655L727.737 146.557C727.921 146.563 728.128 146.511 728.333 146.486C728.6 146.194 728.909 145.914 729.248 145.655Z" fill="#05FB07"/>
<path d="M288.025 287.845C288.025 287.845 287.978 287.84 287.936 287.828C287.748 287.837 287.604 287.837 287.409 287.847L288.025 287.845Z" fill="#05FB07"/>
<path d="M301.423 290.503C300.464 290.458 299.546 290.418 298.521 290.372C300.041 290.615 300.856 290.588 301.423 290.503Z" fill="#05FB07"/>
<path d="M734.388 147.22L736.895 144.901C735.935 145.662 735.141 146.438 734.388 147.22Z" fill="#05FB07"/>
<path d="M444.458 279.681C444.012 279.789 443.593 279.893 443.185 279.995C443.743 279.892 444.164 279.794 444.458 279.681Z" fill="#05FB07"/>
<path d="M436.19 219.766C435.904 219.918 435.53 220.164 435.2 220.363C435.181 220.543 435.296 220.568 436.19 219.766Z" fill="#05FB07"/>
<path d="M498.282 144.414L498.303 144.384L498.297 144.385C498.297 144.385 498.274 144.409 498.282 144.414Z" fill="#05FB07"/>
<path d="M495.542 148.664C496.668 147.557 497.868 145.611 498.287 144.406C497.301 145.631 496.383 146.797 495.542 148.664Z" fill="#05FB07"/>
<path d="M505.172 136.203C505.034 136.347 504.931 136.464 504.772 136.631C504.929 136.484 505.049 136.357 505.172 136.203Z" fill="#05FB07"/>
<path d="M429.698 204.706C429.698 204.706 429.707 204.75 429.733 204.752C429.74 204.718 429.749 204.697 429.752 204.676L429.698 204.706Z" fill="#05FB07"/>
<path d="M445.935 192.136C446.291 192.005 446.73 191.76 447.187 191.465C446.85 191.593 446.431 191.809 445.935 192.136Z" fill="#05FB07"/>
<path d="M520.198 94.263C520.198 94.263 520.214 94.2797 520.22 94.2785L520.205 94.1959C520.205 94.1959 520.194 94.2439 520.198 94.263Z" fill="#05FB07"/>
<path d="M363.072 102.653C379.995 94.0073 402.532 83.2866 420.467 78.0849C423.984 75.736 429.677 73.9807 435.355 72.2935L436.338 73.6388C436.338 73.6388 437.5 73.2206 438.661 72.8023C439.827 72.4095 440.994 72.0166 440.994 72.0166C443.034 72.0256 437.392 73.1356 440.952 72.9224L442.543 71.5723C443.047 71.9575 454.86 69.4822 447.091 72.133C447.091 72.133 451.704 71.2004 456.291 70.5544C458.585 70.2346 460.874 69.9286 462.574 69.7975C464.281 69.6323 465.42 69.5197 465.42 69.5197C469.393 69.3807 467.705 68.0216 472.118 68.3123C473.013 68.7562 470.552 68.635 470.923 69.1826C477.501 69.5575 481.056 69.2861 484.726 68.8229C488.23 68.6329 492.015 68.1878 497.186 70.4818L496.204 70.3817C497.217 70.4367 498.488 70.929 499.557 71.321C500.637 71.7043 501.484 72.0325 501.532 71.9713C500.892 69.966 499.414 71.8587 496.563 69.8104C497.361 68.5615 500.809 70.7941 501.027 69.7771C502.211 70.4691 503.076 71.0364 504.056 71.3728C505.032 71.7231 505.987 72.0313 506.931 72.7022C508.364 74.069 510.075 75.699 511.714 77.2572C513.148 78.9843 514.558 80.5848 514.894 82.1154C515.542 82.7492 516.696 83.2828 517.487 84.1524C518.372 85.0045 519.471 86.1251 520.098 87.9886C520.121 89.4592 519.826 89.35 519.653 89.3754C519.498 89.3845 519.447 89.4988 519.652 91.3158L520.535 91.7292C520.963 94.7832 520.529 94.3522 520.211 94.2668C520.422 95.8664 520.636 96.561 520.814 97.3802C520.984 98.1942 521.243 99.1296 520.657 101.309C520.657 101.309 520.259 98.807 520.166 98.8373C520.227 100.406 520.034 101.556 519.916 102.83C519.578 104.124 519.368 105.573 518.619 107.829C518.427 107.713 518.477 107.206 518.648 106.571C518.754 105.936 518.959 105.17 519.168 104.528C517.637 106.667 518.476 108.825 517.988 110.154C518.41 109.886 519.552 106.745 519.789 108.517C519.038 110.766 518.998 113.808 517.537 115.121L517.841 112.338C517.208 114.828 517.129 115.57 516.884 116.337C516.619 117.1 516.37 117.953 514.797 120.571C514.903 120.256 514.657 120.308 514.581 120.113C513.687 123.995 510.238 127.95 506.859 132.679L507.331 131.654C506.187 133.721 505.951 135.174 505.162 136.185C507.485 133.723 507.135 134.594 507.91 134.779C504.282 137.633 505.042 141.202 499.699 146.439C499.445 146.06 500.166 144.36 501.819 143.09C502.409 140.333 501.718 139.392 503.915 135.544C502.51 137.902 500.635 140.556 500.638 139.684L501.046 141.11C499.998 142.425 499.096 143.398 498.287 144.373C498.403 145.42 501.416 142.542 499.301 145.883C496.707 149.503 496.827 146.859 496.787 147.739C493.138 152.635 496.085 150.497 491.828 154.589C492.155 154.089 492.778 153.102 493.207 152.799C490.036 155.602 486.195 160.489 484.286 160.337C484.495 159.663 484.273 159.278 485.495 158.232L485.605 158.435C488.095 154.395 483.09 161.385 483.174 159.429C483.97 159.767 479.618 163.804 477.579 165.538L478.802 165.594C474.106 173.647 477.973 164.017 471.746 170.25C468.002 174.456 473.483 169.01 471.354 171.777C468.442 174.211 466.867 174.555 462.926 178.477C461.537 179.225 458.819 180.902 457.974 180.304C455.683 182.8 449.813 186.463 448.922 188.411C453.929 185.432 452.742 184.013 458.721 180.691L457.897 182.646C454.282 185.603 449.937 189.75 447.173 191.461C447.8 191.201 448.183 191.215 447.992 191.637C442.989 196.051 442.021 197.974 436.584 201.746C435.358 201.567 438.478 199.377 440.727 197.571C436.84 199.628 437.131 200.242 431.753 203.978C431.009 203.572 435.277 201.346 435.415 200.285L429.814 204.868C429.804 204.817 429.753 204.787 429.718 204.741C429.673 206.408 425.274 207.996 421.987 210.991C413.711 217.413 413.286 219.51 409.151 223.73C407.671 224.339 407.106 224.332 407.452 223.684C409.888 222.683 409.259 222.576 409.795 221.789C406.971 223.918 402.73 225.161 404.048 223.607C399.671 227.118 406.089 223.013 403.517 225.304L397.179 229.624C398.292 229.654 400.597 228.224 397.615 230.92C394.982 233.02 393.552 233.789 389.807 236.082C390.166 235.471 388.091 235.98 390.892 234.256C388.971 235.175 386.161 236.921 385.43 238.144C389.807 236.082 379.089 242.838 382.664 241.79L378.287 243.852C379.216 243.274 379.089 242.838 380.522 242.081C378.841 241.96 377.364 244.423 375.992 245.404C374.456 246.134 370.728 248.45 370.179 248.244C369.007 249.241 365.675 250.893 364.818 250.796C362.96 252.091 364.992 251.452 364.586 252.058L357.886 255.803C357.256 255.52 355.932 254.493 356.835 253.742C354.577 255.635 356.749 255.686 352.924 257.823C354.577 255.635 347.503 259.98 350.033 257.041C347.53 257.687 341.213 260.987 337.846 263.02C336.076 264.894 341.852 261.498 342.043 262.394C332.368 267.738 332.852 270.211 325.427 273.578L327.418 272.829C323.124 275.624 323.58 275.251 321.206 277.159C322.011 275.594 314.695 276.935 307.239 280.636C306.822 281.428 311.909 279.627 311.033 280.982L306.057 283.457C305.654 283.545 306.133 283.122 306.729 282.697C302.351 285.107 297.785 285.336 296.929 286.976L291.635 287.412L293.749 287.289C293.325 288.043 288.222 290.292 287.231 290.921C282.178 293.62 280.086 293.968 276.954 294.502C278.03 294.545 280.695 294.563 276.6 296.416C276.29 295.556 274.089 296.376 271.86 297.084C269.635 297.81 267.461 298.639 267.37 298.184C265.671 298.813 262.463 299.361 262.512 300.125L262.426 298.988C262.549 300.571 256.31 302.703 251.636 304.649C252.052 302.291 246.471 306.701 243.716 305.454C243.243 307.075 235.321 308.575 234.821 309.985C231.116 311.176 231.111 309.806 230.041 309.657L228.463 310.69C226.407 310.632 219.426 312.684 215.086 313.18L211.499 315.365L209.911 315.18C209.369 315.648 206.164 316.641 208.291 316.588L206.16 317.048C206.309 318.416 203.285 318.157 199.17 319.791C198.14 319.824 198.325 319.442 199.206 319.03C197.093 319.552 197.842 318.64 196.582 318.487C197.363 318.46 195.614 319.564 194.371 320.496C193.122 321.395 192.4 322.243 195.355 321.952C195.883 322.431 192.592 323.493 190.432 323.683L188.894 322.742L186.639 324.51C183.371 325.344 181.807 324.86 179.115 325.26C181.832 324.639 184.709 321.734 177.694 323.177C181.355 322.276 183.033 321.251 184.889 320.619C183.427 320.863 182.678 320.891 184.833 319.928C179.436 321.399 183.156 321.031 177.769 322.271C177.861 321.14 176.273 321.1 171.483 321.672L175.162 321.751C175.022 321.915 174.8 322.061 174.54 322.181C175.901 322.027 176.312 322.122 176.678 322.473C175.614 322.67 170.631 325.074 169.607 324.602C172.49 324.881 170.169 325.73 167.567 326.435C164.952 327.076 162.066 327.669 163.914 327.911C163.34 328.319 159.499 328.957 159.017 328.477C163.484 326.974 155.365 327.763 155.997 326.892C154.339 327.461 159.724 327.159 157.484 327.915C154.76 328.393 152.655 328.029 151.08 327.914L152.19 327.538L147.904 327.683C147.283 328.329 152.117 327.991 148.265 328.855C147.209 328.781 143.351 329.646 143.418 329.195C145.175 328.168 143.698 327.38 146.975 326.701C145.61 326.941 142.752 327.437 140.686 327.892C138.613 328.269 137.339 328.682 139.171 329.018L135.867 329.302C137.986 329.558 143.895 329.821 137.278 330.62L137.314 330.39L132.798 331.666L130.725 331.302C130.815 331.574 130.115 331.9 128.399 332.048C127.92 331.763 126.294 331.795 126.381 331.346C121.434 331.888 121.883 332.402 121.266 332.785C118.499 333.133 117.44 333.008 118.68 332.235C114.885 332.59 108.238 332.942 105.612 332.497C100.543 333.226 106.675 332.681 103.737 333.559C99.2349 331.758 86.8905 333.873 78.552 333.797C80.8172 335.482 76.2777 333.976 74.748 335.485C76.5403 334.969 66.8498 334.142 74.1387 333.716L69.6893 333.865C66.6713 332.929 77.0357 333.219 72.4652 331.935C67.5086 331.929 64.197 333.833 58.3576 333.059C60.3626 331.993 53.8378 333.182 55.3494 331.964C56.5796 331.599 58.1929 331.851 59.8531 331.825L58.8381 331.548C47.9958 330.553 55.6402 332.756 49.893 333.224C43.2395 332.974 44.7127 331.974 44.3632 331.396C43.346 331.106 40 331.09 38.2349 331.292C42.3275 330.809 45.665 332.479 43.7571 333.114C40.9257 331.593 33.9067 332.414 32.0449 332.838C41.4394 334.828 38.6131 333.3 47.4654 335.371C48.7245 335.02 48.5764 333.795 53.9133 334.616C50.5196 335.015 54.1132 335.307 55.0577 335.558C54.0539 334.774 58.7922 335.548 60.44 335.243C61.9234 335.821 57.162 336.833 62.6148 337.148L63.6824 335.515C65.8088 335.776 62.75 336.71 67.2974 336.346C64.8252 337.191 68.0165 337.682 61.8379 337.908C69.172 339.355 73.1631 337.227 78.846 336.66C78.2617 336.761 78.1967 336.977 77.6263 337.082C78.8523 336.659 81.0627 336.702 82.744 336.613C86.5144 337.01 79.7705 337.334 80.7537 337.795L86.8685 337.79C86.9892 337.84 87.0204 337.867 87.0262 337.898C88.6233 337.603 90.1486 337.379 90.7245 337.764C88.9233 338.373 88.2184 338.956 86.9966 339.438L93.3962 337.997C92.7091 338.57 98.7349 338.687 94.1728 339.289L103.684 338.616L104.543 339.683C106.821 339.379 106.865 339.161 104.131 339.156C105.766 339.207 109.349 338.557 112.32 338.177C115.296 337.856 117.637 337.475 116.867 338.692C124.246 337.057 126.958 337.152 135.907 335.711C129.083 337.407 144.011 336.217 136.706 337.405C141.075 337.462 141.836 336.226 145.17 335.504C148.394 335.497 147.13 336.78 143.754 337.7L147.713 336.6L147.67 336.831L151.083 335.687C154.865 335.721 152.019 336.668 155.874 336.249L156.564 335.158L159.245 335.337C158.2 335.038 160.435 334.507 163.202 334.014L163.178 334.241L166.524 333.55C163.284 334.635 169.644 333.3 168.227 334.218C171.123 333.819 171.166 333.7 176.316 332.517L175.284 332.039C181.921 330.116 175.748 332.956 181.226 331.916L180.737 331.226C188.841 330.847 193.97 327.996 199.869 327.324C196.614 328.326 197.648 328.993 197.664 328.761C202.562 327.245 210.698 325.411 215.587 323.214C217.739 323.825 218.271 324.041 223.692 323.195C227.469 321.998 227.994 321.717 229.055 320.721C232.839 320.027 239.531 317.332 239.953 318.054C240.612 317.185 243.291 317.174 245.147 316.05L245.674 316.241L245.123 315.602C252.202 315.386 255.672 311.008 262.636 310.21L261.592 310.803L264.212 309.551C264.753 309.713 263.715 310.305 263.734 310.761L276.438 306.409L273.748 306.75C276.399 305.774 277.875 304.328 281.035 303.552C276.483 306.65 285.176 301.914 286.31 302.412L283.751 303.777C286.164 302.745 287.174 302.029 286.781 301.63C291.407 299.456 290.577 301.668 294.63 299.128L291.509 300.361C290.426 300.319 292.417 298.823 294.493 298C295.033 297.906 296.633 297.63 295.084 298.362C298.706 296.61 304.428 294.659 305.882 293.558C307.956 292.865 307.528 293.666 306.54 294.347C314.076 290.127 310.131 292.856 317.681 288.64L317.739 289.094L320.201 287.38L324.434 286.452L322.812 286.576C325.326 285.284 326.852 284.392 329.871 283.066L328.976 284.254C335.904 280.284 337.674 280.992 343.993 276.709C344.505 276.575 343.558 277.301 343.062 277.668C348.823 273.52 348.345 276.283 354.017 271.871C353.746 272.281 354.544 272.133 354.39 272.431L356.981 270.463L357.192 271.355L358.845 268.918L361.005 268.722L361.884 267.733C365.699 267.486 369.299 263.955 374.022 262.7L372.76 262.147C377.398 258.312 383.202 254.819 389.475 251.456C395.711 248.039 402.41 244.708 407.926 240.056L408.206 240.928L412.488 236.688C415.488 235.437 411.342 238.394 412.413 238.196C417.35 234.168 413.844 235.624 419.745 231.208C423.184 229.529 419.044 232.485 417.766 233.757C423.291 229.575 431.036 222.976 435.193 220.397C435.209 220.236 435.355 219.928 435.127 220.042C438.533 216.947 443.602 213.563 447.556 210.491C447.706 210.876 446.778 211.671 445.818 212.504C447.327 211.412 449.359 210.243 450.365 208.949L449.33 210.687C452.485 208.504 458.025 203.27 459.24 203.425C458.654 203.448 458.415 202.83 461.068 200.733C463.38 200.613 467.851 194.496 472.431 191.511C472.156 192.185 469.147 194.8 470.018 194.088C472.341 192.616 473.774 190.515 475.315 188.644L475.113 189.533C475.113 189.533 477.374 187.299 479.627 185.06C481.848 182.787 484.069 180.514 484.069 180.514C486.386 180.249 492.634 172.111 492.677 173.408C495.936 170.228 489.559 175.683 493.525 171.507C495.01 170.819 497.01 167.637 497.453 168.401L497.103 168.918L499.852 165.957L498.703 168.392C501.001 165.757 502.12 163.302 501.749 162.715C504.354 160.64 507.156 156.837 508.737 156.204L508.082 157.269C513.89 150.013 519.837 146.663 522.903 139.534C523.313 139.13 523.457 139.307 522.793 140.289C522.793 140.289 523.634 139.058 524.474 137.827C525.315 136.597 526.09 135.293 526.09 135.293L525.889 136.864C525.889 136.864 526.971 134.599 528.059 132.333C529.042 129.994 530.032 127.661 530.032 127.661L530.359 127.974C531.985 125.038 533.803 121.05 535.371 116.598C536.796 112.047 538.104 107.105 538.42 102.262L538.457 103.703C538.679 101.113 538.654 99.1376 538.646 97.5396C538.687 95.9524 538.727 94.752 538.64 93.608C538.593 92.4696 538.55 91.4222 538.434 90.159C538.286 88.9015 537.863 87.4329 537.287 85.4879C537.464 85.737 537.571 85.9926 537.669 86.2759C537.669 86.2759 537.56 85.8306 537.397 85.1595C537.265 84.4826 536.96 83.6148 536.624 82.7592C535.959 81.0406 535.294 79.3282 535.294 79.3282L536.28 80.6861C535.921 80.0906 535.59 79.4045 535.248 78.6879C534.852 78.0008 534.466 77.2596 534.092 76.516C533.341 75.0426 532.694 73.3924 532.021 72.3045C530.75 69.9703 530.043 68.4559 530.681 69.9896C530.171 69.4614 529.564 68.8396 528.932 68.1896C528.248 67.6084 527.532 67.0002 526.864 66.4357C525.513 65.3355 524.371 64.4393 523.857 64.3573C518.206 59.5042 522.917 62.6764 519.533 59.4486C515.088 56.2928 513.943 56.2688 507.629 52.8953L507.94 52.5559C504.824 51.232 502.758 50.8737 498.378 49.6264C498.378 49.6264 498.718 49.6553 499.057 49.6842C499.395 49.7396 499.739 49.7875 499.739 49.7875C496.05 49.3036 493.906 48.3766 491.9 47.8826C489.904 47.3673 488.019 46.884 485.151 47.6115C482.203 46.8398 476.62 46.9886 476.907 46.0965C468.149 46.4855 461.579 47.3218 453.364 48.7969C451.82 47.5422 451.601 49.1167 446.508 49.155L447.01 49.8486C435.535 51.9534 422.172 53.5557 410.168 57.8298L409.587 57.2033L407.449 58.8249C394.364 62.7813 377.99 69.1885 368.176 73.6077C365.134 75.4098 360.631 78.4589 355.445 80.6449L355.93 80.2928C347.292 84.9008 338.303 89.9146 328.771 94.688C329.19 94.0859 328.159 94.3948 329.101 93.6371C327.293 95.5909 323.672 96.7463 321.668 97.8515L324.282 97.0331C321.999 99.1469 317.92 100.761 316.287 101.043L312.598 104.237C312.289 104.334 311.805 104.482 311.686 104.406L311.17 105.196L308.467 105.677C307.558 106.468 302.317 110.093 301.196 112.005C300.617 111.961 296.719 114.204 299.525 112.15L292.145 116.932C290.314 118.162 288.49 119.391 287.12 120.313C285.762 121.26 284.863 121.892 284.863 121.892L287.299 120.569C288.021 120.999 284.027 124.491 281.613 125.83C284.137 123.212 281.19 124.748 279.624 125.248C277.961 127.03 281.7 124.529 280.942 125.639C278.828 127.853 273.953 131.967 272.506 132.72L273.728 131.354C270.685 134.106 268.38 134.297 265.301 136.965C262.909 139.8 260.532 141.191 261.972 141.678C258.193 145.373 259.842 142.347 258.484 143.405C257.781 144.492 256.009 146.216 254.265 147.7C252.546 149.217 250.867 150.518 250.287 150.612C249.912 152.301 247.309 154.775 244.842 157.1C242.39 159.435 240.137 161.708 240.381 162.639C240.381 162.639 239.469 163.306 238.6 164.031C237.718 164.751 236.84 165.464 236.84 165.464C237.105 165.867 237.265 167.122 235.212 170.085C232.805 172.523 232.668 171.428 231.685 171.997L231.646 174.796C225.287 182.332 219.212 192.502 215.245 204.144C213.391 209.954 211.728 216.194 211.358 222.942C210.939 229.456 211.572 236.241 213.351 242.558C215.352 248.054 218.843 253.812 223.277 258.674C227.69 263.573 232.874 267.641 237.947 270.962L236.701 270.393C236.701 270.393 239.182 272.149 241.74 273.714C244.303 275.272 246.918 276.616 246.918 276.616C246.918 276.616 245.06 275.571 243.248 274.353C241.424 273.209 239.659 271.891 239.659 271.891C241.995 273.11 243.918 273.724 246.117 274.87C257.276 281.26 273.179 286.47 287.942 287.86C297.646 287.381 294.02 290.451 303.247 290.086C302.458 290.18 302.141 290.416 301.428 290.528C306.378 290.785 310.147 290.644 313.89 290.502C317.647 290.364 321.399 290.167 326.257 289.818C325.091 291.627 332.557 290.035 331.664 290.98L332.48 290.259C334.63 290.929 339.674 290.808 338.954 291.413L343.205 290.371L343.583 291.14C349.232 291.025 361.342 290.225 364.39 291.535C371.331 290.368 380.28 289.419 389.692 288.601C399.052 287.432 408.848 286.208 417.523 285.126C419.879 284.257 424.853 283.153 428.759 282.371L433.101 282.491C437.032 281.455 441.032 279.515 444.844 279.393C444.845 279.504 444.705 279.602 444.456 279.707C448.474 278.819 452.377 278.378 455.924 276.647C460.302 275.652 464.674 275.118 463.537 276.273C463.609 274.68 472.882 274.28 472.882 274.28C472.882 274.28 473.764 274.084 475.439 273.715C477.118 273.365 479.563 272.801 482.659 271.926C488.869 270.239 497.798 267.806 508.687 264.839C530.214 258.153 559.418 248.643 589.113 235.66C618.863 222.83 649.291 207.181 674.556 191.799C680.779 187.809 686.768 183.973 692.427 180.343C698.109 176.761 703.131 172.835 707.89 169.437C712.582 165.927 716.948 162.811 720.604 159.69C724.268 156.573 727.42 153.767 729.98 151.314C731.088 149.614 735.052 146.206 732.895 146.625C736.008 144.075 738.305 144.089 738.488 143.026C733.733 145.775 738.704 140.476 733.798 142.794L736.473 140.673C736.724 139.833 733.042 143.845 733.154 142.572L733.2 144.274C730.809 145.7 729.399 146.335 728.33 146.506C726.534 148.452 726.275 150.984 720.717 153.887L722.067 152.825C717.962 155.794 719.014 153.862 718.023 154.281L718.948 153.645L715.066 155.517C717.974 154.048 721.667 150.028 719.434 151.706C714.295 154.854 720.899 151.087 717.318 153.835C715.066 155.517 715.285 154.434 715.14 154.002C715.14 154.002 714.131 154.746 713.07 155.428C712.025 156.119 710.975 156.819 710.975 156.819C710.751 156.178 713.785 155.04 711.697 155.584L706.772 159.609C704.869 158.854 701.422 164.028 698.145 164.28C701.749 161.476 697.502 164.026 697.818 163.187C697.818 163.187 695.493 164.719 693.175 166.256C690.876 167.822 688.486 169.248 688.486 169.248C687.461 169.588 690.729 167.312 689.323 168.247C687.279 168.927 686.58 170.354 685.602 170.916C684.534 171.022 678.467 175.18 678.17 174.074C671.313 177.291 676.15 176.9 669.795 179.958C668.66 179.847 674.511 176.967 671.483 177.961L665.334 181.885C665.755 181.296 666.017 180.231 668.444 178.963C659.719 183.528 652.439 186.022 645.615 188.813C638.807 191.66 632.081 194.137 624.281 198.564C621.665 198.983 625.669 197.278 627.039 196.002C621.475 199.372 617.199 201.022 613.104 202.449C608.973 203.823 604.958 204.829 599.972 207.181L600.065 207.859C585.332 212.546 568.744 220.697 552.277 226.217L554.387 225.931C552.375 227.346 548.787 228.751 546.216 230.014C545.688 229.856 547.655 227.984 543.038 229.986C544.093 229.843 546.168 229.334 545.695 229.855C542.052 230.752 537.488 232.121 532.333 233.803C527.181 235.504 521.31 237.109 515.224 239.042C512.181 239.986 509.063 240.956 505.915 241.939C504.347 242.426 502.768 242.921 501.187 243.411L496.396 244.691C490.012 246.391 483.691 248.046 477.768 249.51C446.024 258.54 410.618 263.974 378.669 267.228C383.545 266.764 381.628 268.555 377.9 268.491C372.742 267.539 368.4 268.021 364.02 268.616C359.646 269.242 355.217 269.466 350.05 268.711C345.393 269.049 340.847 269.17 336.391 269.215C331.938 269.167 327.608 268.684 323.301 268.433C318.999 268.141 314.739 267.895 310.467 267.8C306.235 267.673 302.046 267.419 297.741 267.43L297.519 266.619C295.055 265.948 294.313 266.367 291.673 266.056L291.772 265.847C285.646 264.622 278.167 263.811 274.885 262.511L274.441 263.301C270.928 262.378 272.787 262.191 269.121 261.579L269.351 261.189C269.351 261.189 268.266 261.068 267.181 260.942C266.104 260.787 265.026 260.633 265.026 260.633C265.464 259.988 263.116 259.131 260.437 258.113C257.775 257.085 254.784 255.869 253.792 254.899C249.793 253.201 242.52 249.212 239.23 244.368C239.209 244.037 238.879 243.462 238.511 242.678C238.095 241.917 237.542 240.983 237.058 239.926C236.009 237.839 235.071 235.319 234.804 233.205C234.163 231.265 233.905 228.914 233.688 226.365C233.748 225.056 233.615 223.665 233.778 222.317C233.877 220.975 233.966 219.582 234.366 218.059C235.523 212.057 237.978 205.421 241.105 199.651L240.103 199.41L241.674 196.281C241.84 196.434 242.16 196.073 242.007 196.593C243.121 195.673 244.148 193.922 245.055 192.096C246.004 190.282 247.07 188.465 248.131 187.469C246.386 188.454 246.625 189.459 245.471 191.121C243.562 193.343 244.139 190.443 246.82 187.43L246.953 187.622C246.953 187.622 247.222 186.982 247.491 186.349C247.752 185.704 248.077 185.087 248.077 185.087C248.894 185.289 250.658 183.521 251.452 183.741C254.925 178.988 257.93 174.931 261.204 170.982C264.447 167.013 268.032 163.183 272.803 159.035C272.376 160.517 279.49 152.848 278.555 155.657C284.01 150.32 276.788 155.531 278.774 152.483C280.431 151.134 281.9 149.367 282.544 149.55C281.993 150.471 284.463 149.155 283.212 150.363L287.14 147.08C287.593 146.871 286.841 147.732 286.462 148.162C294.123 141.002 301.822 137.8 309.13 131.846C309.412 131 305.94 133.806 306.205 132.971C313.499 126.77 313.72 129.128 320.814 123.757L319.65 125.368C321.797 123.404 322.546 122.21 326.897 120.291C328.062 120.632 323.842 122.98 322.12 124.511C324.885 122.839 331.812 118.476 329.265 119.059C332.472 116.84 334.094 116.821 336.035 116.01C335.993 115.781 332.587 117.284 334.366 115.807C339.194 113.596 346.367 109.679 352.149 106.78C352.196 107 352.75 107.088 352.304 107.439C356.401 104.045 356.802 106.03 363.076 102.672L363.072 102.653Z" fill="#05FB07"/>
<path d="M427.513 206.212L429.706 204.711C429.586 204.556 429.551 204.301 430.391 203.385L427.519 206.211L427.513 206.212Z" fill="#05FB07"/>
<path d="M514.592 120.137C514.673 119.833 514.762 119.535 514.802 119.252C514.548 119.791 514.543 120.015 514.592 120.137Z" fill="#05FB07"/>
<path d="M519.616 94.9473C519.998 96.5481 520.058 95.1015 520.198 94.2628C520.017 94.2438 519.806 94.3091 519.616 94.9473Z" fill="#05FB07"/>
<path d="M370.195 248.26C370.552 247.958 370.736 247.714 370.576 247.593C370.121 248.038 370.067 248.206 370.195 248.26Z" fill="#05FB07"/>
<path d="M188.288 320.036C188.542 320.028 188.77 320.018 189.084 320.013C188.926 319.976 188.647 319.989 188.288 320.036Z" fill="#05FB07"/>
<path d="M199.212 319.029C199.732 318.9 200.397 318.705 201.338 318.367C200.383 318.557 199.725 318.79 199.212 319.029Z" fill="#05FB07"/>
<path d="M409.824 221.803C410.404 221.361 410.954 220.899 411.353 220.399C410.44 221.06 410.052 221.479 409.824 221.803Z" fill="#05FB07"/>
<path d="M203.487 317.621L206.173 317.045C206.175 316.986 206.192 316.937 206.179 316.867L203.495 317.626L203.487 317.621Z" fill="#05FB07"/>
<path d="M184.887 320.606C185.941 320.424 187.364 320.141 188.288 320.036C186.898 320.07 185.842 320.279 184.887 320.606Z" fill="#05FB07"/>
<path d="M306.737 282.702C306.815 282.661 306.897 282.613 306.993 282.563C308.782 281.321 307.635 282.031 306.737 282.702Z" fill="#05FB07"/>
<path d="M214.736 313.232C214.843 313.212 214.978 313.193 215.099 313.177L215.813 312.75L214.736 313.232Z" fill="#05FB07"/>
<path d="M173.233 322.593C173.735 322.468 174.196 322.343 174.544 322.167C174.121 322.219 173.63 322.291 173.003 322.374C173.168 322.455 173.22 322.524 173.233 322.593Z" fill="#05FB07"/>
<path d="M268.162 297.146C267.546 297.712 267.346 298.018 267.385 298.188C268.237 297.873 268.733 297.538 268.162 297.146Z" fill="#05FB07"/>
</svg>
